<?xml version="1.0" encoding="utf-8"?>
<!-- Generator: Adobe Illustrator 16.0.0, SVG Export Plug-In . SVG Version: 6.00 Build 0)  -->
<!DOCTYPE svg PUBLIC "-//W3C//DTD SVG 1.1//EN" "http://www.w3.org/Graphics/SVG/1.1/DTD/svg11.dtd">
<svg version="1.1" id="Layer_1" xmlns="http://www.w3.org/2000/svg" xmlns:xlink="http://www.w3.org/1999/xlink" x="0px" y="0px"
	 width="512px" height="512px" viewBox="0 0 512 512" enable-background="new 0 0 512 512" xml:space="preserve">
<g>
	<path d="M256.016,139.908c32.934,0,59.614-38.92,59.614-71.854c0-32.965-26.681-59.645-59.614-59.645
		c-32.964,0-59.646,26.68-59.646,59.645C196.37,100.988,223.051,139.908,256.016,139.908z"/>
	<path d="M432.521,398.402h-24.438v-19.191c0-21.342-17.372-38.695-38.695-38.695h-96.84l-0.018-47.367h67.799
		c15.741,0,28.412-12.721,28.412-28.406v-73.891c0-34.061-20.514-63.246-49.865-76.064c-13.561,23.49-36.354,41.648-62.86,41.648
		c-26.505,0-49.299-18.141-62.891-41.648c-29.315,12.818-49.865,42.021-49.865,76.064v73.891c0,15.686,12.72,28.406,28.394,28.406
		h67.817l0.013,47.367h-96.872c-21.323,0-38.695,17.354-38.695,38.695v19.191H79.479c-6.428,0-11.624,5.197-11.624,11.605v81.977
		c0,6.404,5.196,11.605,11.624,11.605h81.971c6.396,0,11.592-5.201,11.592-11.605v-81.977c0-6.408-5.196-11.605-11.592-11.605
		h-24.47v-19.191c0-3.102,2.535-5.637,5.632-5.637h96.872v24.828h-24.456c-6.405,0-11.605,5.197-11.605,11.605v81.977
		c0,6.404,5.201,11.605,11.605,11.605h81.976c6.409,0,11.605-5.201,11.605-11.605v-81.977c0-6.408-5.196-11.605-11.605-11.605
		h-24.457v-24.828h96.84c3.101,0,5.632,2.535,5.632,5.637v19.191h-24.47c-6.396,0-11.592,5.197-11.592,11.605v81.977
		c0,6.404,5.196,11.605,11.592,11.605h81.972c6.427,0,11.623-5.201,11.623-11.605v-81.977
		C444.145,403.6,438.949,398.402,432.521,398.402z"/>
</g>
</svg>
